<svg width="512" height="512" viewBox="0 0 512 512" fill="none" xmlns="http://www.w3.org/2000/svg">
<rect width="512" height="512" rx="100" fill="black"/>
<path fill-rule="evenodd" clip-rule="evenodd" d="M115.139 215.023C141.314 209.798 168.341 210.533 194.188 217.172C223.849 223.716 256.147 236.849 288.35 248.299C320.554 259.75 353.369 269.377 383.124 268.957C404.385 269.095 425.332 263.869 444 253.767C443.91 244.375 443.124 235.002 441.646 225.725C420.747 232.21 398.46 232.905 377.192 227.735C348.944 221.846 318.765 207.264 288.68 192.869C258.595 178.475 228.557 164.36 200.309 159.172C174.234 153.474 146.982 156.772 123.049 168.52C104.44 178.363 87.735 191.402 73.7081 207.031C71.5581 215.326 69.9851 223.759 69 232.268C83.6179 224.683 99.1116 218.891 115.139 215.023Z" fill="#CC3EA4"/>
<path fill-rule="evenodd" clip-rule="evenodd" d="M388.666 307.766C357.168 311.365 322.752 304.588 288.618 296.129C254.485 287.669 220.021 277.714 188.383 274.443C160.133 270.985 131.468 273.389 104.202 281.5C91.5375 285.239 80.3793 289.866 71.2456 293.278C73.6819 305.445 77.3249 317.343 82.1213 328.798C86.5469 328.798 91.255 328.798 96.2456 328.47C124.973 327.171 153.76 328.595 182.215 332.723C215.172 337.117 251.895 346.043 288.477 351.418C325.059 356.793 361.735 358.569 394.739 348.848C405.528 345.774 415.947 341.543 425.812 336.229C432.547 322.255 437.482 307.494 440.502 292.296C424.409 300.77 406.797 306.026 388.666 307.766Z" fill="#CC3EA4"/>
<path fill-rule="evenodd" clip-rule="evenodd" d="M255.738 68.0002C218.263 67.9411 181.629 79.0267 150.559 99.8279C169.405 101.027 187.869 105.653 205.032 113.475C231.397 124.505 260.069 141.797 288.742 158.015C317.414 174.233 345.898 188.534 372.452 194.189C392.49 199.177 413.537 198.465 433.186 192.133C406.427 117.672 335.378 67.9696 255.738 68.0002Z" fill="#CC3EA4"/>
<path fill-rule="evenodd" clip-rule="evenodd" d="M381.213 395.481C351.693 402.631 320.007 402.725 288.604 400.154C249.998 397.116 211.392 390.807 176.41 389.405C158.879 388.42 141.305 388.42 123.774 389.405C194.568 458.453 307.193 461.111 381.213 395.481Z" fill="#CC3EA4"/>
</svg>
